<?xml version="1.0" encoding="UTF-8" standalone="no"?>
<!DOCTYPE svg PUBLIC "-//W3C//DTD SVG 1.1//EN" "http://www.w3.org/Graphics/SVG/1.1/DTD/svg11.dtd">
<svg width="100%" height="100%" viewBox="0 0 2000 700" version="1.1" xmlns="http://www.w3.org/2000/svg" xmlns:xlink="http://www.w3.org/1999/xlink" xml:space="preserve" xmlns:serif="http://www.serif.com/" style="fill-rule:evenodd;clip-rule:evenodd;stroke-linejoin:round;stroke-miterlimit:2;">
    <g id="Layer-1" serif:id="Layer 1" transform="matrix(1.00586,0,0,1.00586,-60.6085,11.026)">
        <g transform="matrix(1,0,0,1,1010.68,397.066)">
            <path d="M0,-120.029L-42.847,-120.029L-42.847,-67.818L0,-67.818C15.89,-67.818 27.808,-78.033 27.808,-93.924C27.808,-109.53 15.89,-120.029 0,-120.029M-83.14,-154.646L5.392,-154.646C46.535,-154.646 68.952,-126.839 68.952,-93.639C68.952,-60.724 46.252,-33.2 5.392,-33.2L-42.847,-33.2L-42.847,34.617L-83.14,34.617L-83.14,-154.646Z" style="fill:rgb(0,73,124);fill-rule:nonzero;"/>
        </g>
        <g transform="matrix(1,0,0,1,1194.26,399.336)">
            <path d="M0,-124.285C-34.901,-124.285 -57.318,-97.612 -57.318,-62.142C-57.318,-26.958 -34.901,-0.001 0,-0.001C34.901,-0.001 57.602,-26.958 57.602,-62.142C57.602,-97.612 34.901,-124.285 0,-124.285M0,-160.037C57.317,-160.037 99.029,-119.177 99.029,-62.142C99.029,-5.108 57.317,35.752 0,35.752C-57.034,35.752 -98.746,-5.108 -98.746,-62.142C-98.746,-119.177 -57.034,-160.037 0,-160.037" style="fill:rgb(0,73,124);fill-rule:nonzero;"/>
        </g>
        <g transform="matrix(1,0,0,1,1321.67,431.683)">
            <path d="M0,-189.263L40.293,-189.263L40.293,-35.469L120.312,-35.469L120.312,0L0,0L0,-189.263Z" style="fill:rgb(0,73,124);fill-rule:nonzero;"/>
        </g>
        <g transform="matrix(1,0,0,1,1479.14,300.306)">
            <path d="M0,74.058C13.337,87.962 34.051,99.596 60.155,99.596C82.288,99.596 93.071,89.097 93.071,78.315C93.071,64.127 76.613,59.303 54.765,54.196C23.835,47.102 -15.89,38.589 -15.89,-3.69C-15.89,-35.186 11.351,-60.724 55.899,-60.724C85.978,-60.724 110.947,-51.644 129.675,-34.336L107.259,-4.825C91.936,-19.012 71.506,-25.539 53.062,-25.539C34.901,-25.539 25.254,-17.593 25.254,-6.244C25.254,6.526 41.145,10.497 62.993,15.606C94.206,22.7 133.932,32.063 133.932,74.058C133.932,108.676 109.245,134.782 58.169,134.782C21.849,134.782 -4.256,122.58 -22.133,104.704L0,74.058Z" style="fill:rgb(0,73,124);fill-rule:nonzero;"/>
        </g>
        <g transform="matrix(1,0,0,1,1695.36,318.182)">
            <path d="M0,37.739L-14.755,55.332L-14.755,113.501L-55.048,113.501L-55.048,-75.762L-14.755,-75.762L-14.755,8.796L52.211,-75.762L101.867,-75.762L26.673,13.052L106.975,113.501L57.318,113.501L0,37.739Z" style="fill:rgb(0,73,124);fill-rule:nonzero;"/>
        </g>
        <g transform="matrix(1,0,0,1,1867.59,309.953)">
            <path d="M0,54.196L62.709,54.196L31.496,-32.632L0,54.196ZM73.775,89.097L-10.782,89.097L-22.7,121.729L-66.966,121.729L6.242,-67.533L56.75,-67.533L129.675,121.729L85.693,121.729L73.775,89.097Z" style="fill:rgb(0,73,124);fill-rule:nonzero;"/>
        </g>
        <g transform="matrix(-1,0,0,1,1657.52,1.638)">
            <rect x="826.306" y="139.932" width="4.906" height="392.498" style="fill:rgb(85,89,91);"/>
        </g>
    </g>
    <g transform="matrix(1.00586,0,0,1.00586,600.705,445.637)">
        <g id="Layer-3" serif:id="Layer 3">
            <path d="M0,-187.616L-55.448,-169.599L-55.448,-208.718L-62.108,-206.553C-68.968,-204.337 -71.399,-201.361 -71.399,-195.179L-71.399,-84.283L-64.738,-86.447C-57.879,-88.664 -55.448,-91.64 -55.448,-97.821L-55.448,-128.584L0,-146.599L0,-112.04C0.012,-94.332 -4.678,-81.348 -14.758,-71.179C-24.497,-61.355 -39.503,-53.548 -63.423,-45.859C-87.345,-38.003 -102.35,-36.059 -112.089,-39.555C-122.17,-43.173 -126.859,-53.109 -126.848,-70.824L-126.848,-180.962C-126.859,-198.669 -122.17,-211.652 -112.089,-221.821C-102.35,-231.645 -87.345,-239.453 -63.424,-247.141C-39.503,-254.998 -24.497,-256.941 -14.758,-253.445C-4.678,-249.828 0.012,-239.891 0,-222.177L0,-187.616ZM-154.191,-171.317L-202.045,-155.768L-202.045,-126.145L-154.191,-141.693L-154.191,-100.678L-202.045,-85.129L-202.045,-6.134L-257.493,11.883L-257.493,-178.769L-154.191,-212.334L-154.191,-171.317ZM-284.838,-128.868L-324.335,-116.034L-324.335,-6.656C-324.323,11.051 -329.013,24.034 -339.093,34.203C-348.832,44.028 -363.838,51.836 -387.759,59.524C-411.68,67.381 -426.685,69.323 -436.425,65.828C-446.505,62.21 -451.194,52.274 -451.183,34.559L-451.183,11.013L-395.734,-7.004L-395.734,21.1L-389.073,18.936C-382.215,16.719 -379.783,13.742 -379.783,7.562L-379.784,-98.018L-419.281,-85.184L-419.281,-126.201L-284.838,-169.885L-284.838,-128.868ZM24.048,-266.81L24.048,-266.809C17.488,-276.344 8.374,-283.367 -2.728,-287.353C-9.725,-289.867 -17.503,-291.141 -25.848,-291.141C-39.085,-291.141 -54.141,-288.138 -74.649,-281.405L-379.687,-182.253C-379.687,-182.253 -485.262,-144.098 -423.833,-245.063C-581.398,-119.178 -509.276,30.097 -475.23,79.193L-475.23,79.192C-468.671,88.726 -459.557,95.749 -448.456,99.737C-441.459,102.249 -433.68,103.524 -425.335,103.524C-412.097,103.525 -397.042,100.521 -376.534,93.788L-71.496,-5.365C-71.496,-5.365 34.079,-43.519 -27.351,57.446C130.216,-68.439 58.093,-217.715 24.048,-266.81" style="fill:rgb(0,73,124);fill-rule:nonzero;"/>
        </g>
    </g>
</svg>
