<?xml version="1.0" encoding="UTF-8" standalone="no"?>
<!DOCTYPE svg PUBLIC "-//W3C//DTD SVG 1.1//EN" "http://www.w3.org/Graphics/SVG/1.1/DTD/svg11.dtd">
<svg width="100%" height="100%" viewBox="0 0 700 800" version="1.1" xmlns="http://www.w3.org/2000/svg" xmlns:xlink="http://www.w3.org/1999/xlink" xml:space="preserve" xmlns:serif="http://www.serif.com/" style="fill-rule:evenodd;clip-rule:evenodd;stroke-linejoin:round;stroke-miterlimit:2;">
    <g id="Layer-1" serif:id="Layer 1" transform="matrix(1.09656,0,0,1.09656,-38.4797,-42.526)">
        <g transform="matrix(1,0,0,1,136.377,687.533)">
            <path d="M0,-59.22L-21.14,-59.22L-21.14,-33.46L0,-33.46C7.84,-33.46 13.72,-38.5 13.72,-46.34C13.72,-54.04 7.84,-59.22 0,-59.22M-41.02,-76.3L2.66,-76.3C22.96,-76.3 34.019,-62.579 34.019,-46.199C34.019,-29.96 22.82,-16.38 2.66,-16.38L-21.14,-16.38L-21.14,17.08L-41.02,17.08L-41.02,-76.3Z" style="fill:rgb(7,74,123);fill-rule:nonzero;"/>
        </g>
        <g transform="matrix(1,0,0,1,226.923,688.651)">
            <path d="M0,-61.318C-17.22,-61.318 -28.279,-48.159 -28.279,-30.659C-28.279,-13.298 -17.22,0.001 0,0.001C17.22,0.001 28.42,-13.298 28.42,-30.659C28.42,-48.159 17.22,-61.318 0,-61.318M0,-78.959C28.28,-78.959 48.86,-58.798 48.86,-30.659C48.86,-2.518 28.28,17.641 0,17.641C-28.14,17.641 -48.72,-2.518 -48.72,-30.659C-48.72,-58.798 -28.14,-78.959 0,-78.959" style="fill:rgb(7,74,123);fill-rule:nonzero;"/>
        </g>
        <g transform="matrix(1,0,0,1,289.749,704.613)">
            <path d="M0,-93.38L19.88,-93.38L19.88,-17.5L59.359,-17.5L59.359,0L0,0L0,-93.38Z" style="fill:rgb(7,74,123);fill-rule:nonzero;"/>
        </g>
        <g transform="matrix(1,0,0,1,367.415,639.793)">
            <path d="M0,36.539C6.58,43.399 16.8,49.14 29.68,49.14C40.6,49.14 45.92,43.959 45.92,38.64C45.92,31.64 37.8,29.26 27.021,26.739C11.76,23.239 -7.84,19.039 -7.84,-1.82C-7.84,-17.36 5.601,-29.96 27.58,-29.96C42.42,-29.96 54.74,-25.481 63.979,-16.94L52.92,-2.38C45.36,-9.38 35.28,-12.601 26.18,-12.601C17.22,-12.601 12.46,-8.681 12.46,-3.08C12.46,3.22 20.3,5.18 31.08,7.699C46.48,11.199 66.08,15.819 66.08,36.539C66.08,53.619 53.9,66.499 28.7,66.499C10.78,66.499 -2.1,60.479 -10.92,51.659L0,36.539Z" style="fill:rgb(7,74,123);fill-rule:nonzero;"/>
        </g>
        <g transform="matrix(1,0,0,1,474.059,648.613)">
            <path d="M0,18.62L-7.279,27.3L-7.279,56L-27.159,56L-27.159,-37.38L-7.279,-37.38L-7.279,4.34L25.761,-37.38L50.26,-37.38L13.16,6.44L52.78,56L28.28,56L0,18.62Z" style="fill:rgb(7,74,123);fill-rule:nonzero;"/>
        </g>
        <g transform="matrix(1,0,0,1,559.005,644.552)">
            <path d="M0,26.74L30.939,26.74L15.54,-16.1L0,26.74ZM36.399,43.961L-5.32,43.961L-11.2,60.06L-33.04,60.06L3.08,-33.32L28,-33.32L63.979,60.06L42.28,60.06L36.399,43.961Z" style="fill:rgb(7,74,123);fill-rule:nonzero;"/>
        </g>
        <g transform="matrix(1,0,0,1,0,191.549)">
            <rect x="96.018" y="332.791" width="517.549" height="4.306" style="fill:rgb(95,96,98);"/>
        </g>
    </g>
    <g transform="matrix(1.09656,0,0,1.09656,566.713,335.97)">
        <g id="Layer-3" serif:id="Layer 3">
            <path d="M0,-163.32L-48.268,-147.636L-48.268,-181.688L-54.065,-179.804C-60.037,-177.875 -62.153,-175.284 -62.153,-169.904L-62.153,-73.368L-56.355,-75.252C-50.384,-77.181 -48.268,-79.772 -48.268,-85.153L-48.268,-111.931L0,-127.615L0,-97.53C0.011,-82.116 -4.072,-70.813 -12.847,-61.962C-21.325,-53.409 -34.388,-46.613 -55.21,-39.921C-76.033,-33.081 -89.096,-31.389 -97.574,-34.432C-106.349,-37.582 -110.431,-46.231 -110.421,-61.652L-110.421,-157.527C-110.431,-172.941 -106.35,-184.243 -97.574,-193.094C-89.096,-201.647 -76.033,-208.444 -55.211,-215.136C-34.388,-221.975 -21.325,-223.668 -12.847,-220.624C-4.072,-217.474 0.01,-208.825 0,-193.404L0,-163.32ZM-134.225,-149.131L-175.88,-135.596L-175.88,-109.809L-134.225,-123.344L-134.225,-87.639L-175.88,-74.104L-175.88,-5.34L-224.148,10.344L-224.148,-155.618L-134.225,-184.836L-134.225,-149.131ZM-247.951,-112.179L-282.334,-101.007L-282.334,-5.794C-282.324,9.619 -286.406,20.922 -295.181,29.774C-303.659,38.326 -316.721,45.123 -337.544,51.816C-358.367,58.655 -371.43,60.347 -379.908,57.304C-388.683,54.154 -392.765,45.505 -392.754,30.083L-392.755,9.586L-344.487,-6.096L-344.487,18.367L-338.688,16.484C-332.718,14.554 -330.602,11.963 -330.602,6.583L-330.602,-85.324L-364.984,-74.153L-364.984,-109.858L-247.951,-147.884L-247.951,-112.179ZM20.933,-232.258C15.224,-240.557 7.289,-246.671 -2.374,-250.141C-8.465,-252.329 -15.237,-253.438 -22.501,-253.438C-34.024,-253.438 -47.13,-250.824 -64.982,-244.963L-330.518,-158.651C-330.518,-158.651 -422.42,-125.437 -368.946,-213.328C-506.107,-103.745 -443.325,26.2 -413.688,68.938L-413.688,68.937C-407.979,77.237 -400.044,83.35 -390.381,86.821C-384.29,89.008 -377.519,90.117 -370.255,90.117L-370.254,90.117C-358.73,90.118 -345.625,87.503 -327.772,81.643L-62.237,-4.67C-62.237,-4.67 29.665,-37.883 -23.809,50.007C113.353,-59.576 50.569,-189.52 20.933,-232.258" style="fill:rgb(7,74,123);fill-rule:nonzero;"/>
        </g>
    </g>
</svg>
