<?xml version="1.0" encoding="UTF-8" standalone="no"?>
<!DOCTYPE svg PUBLIC "-//W3C//DTD SVG 1.1//EN" "http://www.w3.org/Graphics/SVG/1.1/DTD/svg11.dtd">
<svg width="100%" height="100%" viewBox="0 0 565 375" version="1.1" xmlns="http://www.w3.org/2000/svg" xmlns:xlink="http://www.w3.org/1999/xlink" xml:space="preserve" xmlns:serif="http://www.serif.com/" style="fill-rule:evenodd;clip-rule:evenodd;stroke-linejoin:round;stroke-miterlimit:2;">
    <g transform="matrix(0.966569,0,0,0.966569,472.312,266.431)">
        <g id="Layer-3" serif:id="Layer 3">
            <path d="M0,-163.32L-48.268,-147.636L-48.268,-181.688L-54.065,-179.804C-60.037,-177.875 -62.153,-175.284 -62.153,-169.904L-62.153,-73.368L-56.355,-75.252C-50.384,-77.181 -48.268,-79.772 -48.268,-85.153L-48.268,-111.931L0,-127.615L0,-97.53C0.011,-82.116 -4.072,-70.813 -12.847,-61.962C-21.325,-53.409 -34.388,-46.613 -55.21,-39.921C-76.033,-33.081 -89.096,-31.389 -97.574,-34.432C-106.349,-37.582 -110.431,-46.231 -110.421,-61.652L-110.421,-157.527C-110.431,-172.941 -106.35,-184.243 -97.574,-193.094C-89.096,-201.647 -76.033,-208.444 -55.211,-215.136C-34.388,-221.975 -21.325,-223.668 -12.847,-220.624C-4.072,-217.474 0.01,-208.825 0,-193.404L0,-163.32ZM-134.225,-149.131L-175.88,-135.596L-175.88,-109.809L-134.225,-123.344L-134.225,-87.639L-175.88,-74.104L-175.88,-5.34L-224.148,10.344L-224.148,-155.618L-134.225,-184.836L-134.225,-149.131ZM-247.951,-112.179L-282.334,-101.007L-282.334,-5.794C-282.324,9.619 -286.406,20.922 -295.181,29.774C-303.659,38.326 -316.721,45.123 -337.544,51.816C-358.367,58.655 -371.43,60.347 -379.908,57.304C-388.683,54.154 -392.765,45.505 -392.754,30.083L-392.755,9.586L-344.487,-6.096L-344.487,18.367L-338.688,16.484C-332.718,14.554 -330.602,11.963 -330.602,6.583L-330.602,-85.324L-364.984,-74.153L-364.984,-109.858L-247.951,-147.884L-247.951,-112.179ZM20.933,-232.258C15.224,-240.557 7.289,-246.671 -2.374,-250.141C-8.465,-252.329 -15.237,-253.438 -22.501,-253.438C-34.024,-253.438 -47.13,-250.824 -64.982,-244.963L-330.518,-158.651C-330.518,-158.651 -422.42,-125.437 -368.946,-213.328C-506.107,-103.745 -443.325,26.2 -413.688,68.938L-413.688,68.937C-407.979,77.237 -400.044,83.35 -390.381,86.821C-384.29,89.008 -377.519,90.117 -370.255,90.117L-370.254,90.117C-358.73,90.118 -345.625,87.503 -327.772,81.643L-62.237,-4.67C-62.237,-4.67 29.665,-37.883 -23.809,50.007C113.353,-59.576 50.569,-189.52 20.933,-232.258" style="fill:rgb(7,74,123);fill-rule:nonzero;"/>
        </g>
    </g>
</svg>
